<?xml version="1.0" encoding="utf-8"?>
<!-- Generator: Adobe Illustrator 25.2.0, SVG Export Plug-In . SVG Version: 6.00 Build 0)  -->
<svg version="1.1" id="Layer_1" xmlns="http://www.w3.org/2000/svg" xmlns:xlink="http://www.w3.org/1999/xlink" x="0px" y="0px"
	 viewBox="0 0 1287 243" style="enable-background:new 0 0 1287 243;" xml:space="preserve">
<style type="text/css">
	.st0{fill:#1D1D1B;}
</style>
<g>
	<path class="st0" d="M607.2,64.2c0-1.1,0.9-2.1,2.1-2.1h30.6c17.1,0,25,11.1,25,24.4c0,8.8-3.7,17-11.7,21.4
		c-0.9,0.4-1,1.5-0.5,2.2l12.3,17c0.5,0.8,0,1.7-0.9,1.7h-16.4c-1.3,0-2.5-0.7-3.3-1.7l-10.5-14.8c-0.6-0.9-1.7-1.4-2.7-1.4h-5.3
		c-0.9,0-1.7,0.8-1.7,1.7v14.1c0,1.1-0.9,2.1-2.1,2.1h-12.9c-1.1,0-2.1-0.9-2.1-2.1L607.2,64.2L607.2,64.2z M638.9,77.8h-13
		c-0.9,0-1.7,0.8-1.7,1.7V94c0,0.9,0.8,1.7,1.7,1.7h13c6.9,0,9.4-4.2,9.4-8.8C648.3,81.6,645.7,77.8,638.9,77.8z"/>
	<path class="st0" d="M668.7,95.6c0-19.1,16.2-34.7,35.5-34.7c19.5,0,35.5,15.6,35.5,34.7s-15.9,34.7-35.5,34.7
		C684.9,130.4,668.7,114.7,668.7,95.6z M686,95.6c0,10.1,8.1,18.2,18.2,18.2c10.3,0,18.2-8.1,18.2-18.2s-7.9-18.2-18.2-18.2
		C694.2,77.5,686,85.6,686,95.6z"/>
	<path class="st0" d="M763,127c0,1.1-0.9,2.1-2.1,2.1H748c-1.1,0-2.1-0.9-2.1-2.1V64.2c0-1.1,0.9-2.1,2.1-2.1h10.4
		c1.3,0,2.6,0.6,3.3,1.6l27.5,34.4c0.3,0.5,1,0.3,1-0.3V64.2c0-1.1,0.9-2.1,2.1-2.1h12.9c1.1,0,2.1,0.9,2.1,2.1V127
		c0,1.1-0.9,2.1-2.1,2.1h-10.4c-1.3,0-2.6-0.6-3.3-1.6L764,93.2c-0.3-0.5-1-0.3-1,0.3V127z"/>
	<path class="st0" d="M841.9,129.1c-1.1,0-2.1-0.9-2.1-2.1V64.2c0-1.1,0.9-2.1,2.1-2.1h29c20.9,0,31.6,15.3,31.6,33.4
		c0,18.2-10.7,33.4-31.6,33.4h-29V129.1L841.9,129.1z M869.6,78.8h-10.9c-0.9,0-1.7,0.8-1.7,1.7v30.3c0,0.9,0.8,1.7,1.7,1.7h10.9
		c10.2,0,15.6-6.9,15.6-16.9C885.2,85.6,879.8,78.8,869.6,78.8z"/>
	<path class="st0" d="M911.1,129.1c-1.1,0-2.1-0.9-2.1-2.1V64.2c0-1.1,0.9-2.1,2.1-2.1h47.2c1.1,0,2.1,0.9,2.1,2.1v12.5
		c0,1.1-0.9,2.1-2.1,2.1h-30.4c-0.9,0-1.7,0.8-1.7,1.7v6.2c0,0.9,0.8,1.7,1.7,1.7h24.3c1.1,0,2.1,0.9,2.1,2.1v11.3
		c0,1.1-0.9,2.1-2.1,2.1h-24.3c-0.9,0-1.7,0.8-1.7,1.7v5.1c0,0.9,0.8,1.7,1.7,1.7h30.4c1.1,0,2.1,0.9,2.1,2.1V127
		c0,1.1-0.9,2.1-2.1,2.1L911.1,129.1L911.1,129.1z"/>
	<path class="st0" d="M989,64.1c0.4-1.1,1.6-1.9,2.8-1.9h12.9c1.2,0,2.4,0.8,2.8,1.9l25.4,63.1c0.3,0.9-0.3,1.9-1.3,1.9H1017
		c-1.2,0-2.3-0.8-2.7-1.9l-2.4-6.3c-0.3-0.9-1.3-1.6-2.3-1.6h-22.9c-1,0-2,0.7-2.3,1.6l-2.4,6.3c-0.4,1.1-1.5,1.9-2.7,1.9h-14.6
		c-1,0-1.6-1-1.3-1.9L989,64.1z M1003.8,103.7c0.9,0,1.4-0.9,1.1-1.6l-6.1-16.4c-0.2-0.6-1-0.6-1.2,0l-6.2,16.4
		c-0.3,0.8,0.3,1.6,1.1,1.6H1003.8z"/>
	<path class="st0" d="M1038,64.2c0-1.1,0.9-2.1,2.1-2.1h30.6c17.1,0,25,11.1,25,24.4c0,8.8-3.7,17-11.7,21.4c-0.9,0.4-1,1.5-0.5,2.2
		l12.3,17c0.5,0.8,0,1.7-0.9,1.7h-16.4c-1.3,0-2.5-0.7-3.3-1.7l-10.5-14.8c-0.6-0.9-1.7-1.4-2.7-1.4h-5.3c-0.9,0-1.7,0.8-1.7,1.7
		v14.1c0,1.1-0.9,2.1-2.1,2.1H1040c-1.1,0-2.1-0.9-2.1-2.1L1038,64.2L1038,64.2L1038,64.2z M1069.7,77.8h-12.9
		c-0.9,0-1.7,0.8-1.7,1.7V94c0,0.9,0.8,1.7,1.7,1.7h12.9c6.9,0,9.4-4.2,9.4-8.8C1079.1,81.6,1076.5,77.8,1069.7,77.8z"/>
	<path class="st0" d="M1102.8,64.2c0-1.1,0.9-2.1,2.1-2.1h13c1.1,0,2.1,0.9,2.1,2.1V127c0,1.1-0.9,2.1-2.1,2.1h-13
		c-1.1,0-2.1-0.9-2.1-2.1V64.2z"/>
	<path class="st0" d="M1146.4,127c0,1.1-0.9,2.1-2.1,2.1h-12.9c-1.1,0-2.1-0.9-2.1-2.1V64.2c0-1.1,0.9-2.1,2.1-2.1h10.4
		c1.3,0,2.6,0.6,3.3,1.6l27.5,34.4c0.3,0.5,1,0.3,1-0.3V64.2c0-1.1,0.9-2.1,2.1-2.1h12.9c1.1,0,2.1,0.9,2.1,2.1V127
		c0,1.1-0.9,2.1-2.1,2.1h-10.4c-1.3,0-2.6-0.6-3.3-1.6l-27.5-34.3c-0.3-0.5-1-0.3-1,0.3V127z"/>
	<path class="st0" d="M1232.5,104.2c-1.1,0-2.1-0.9-2.1-2.1V92c0-1.1,0.9-2.1,2.1-2.1h28.1c1.1,0,2.1,0.9,2.1,2.1v34.9
		c0,1.1-0.9,2.1-2.1,2.1h-9.3c-1.1,0-2.1-0.9-2.1-2.1v-2.5c0-0.5-0.7-0.8-1-0.3c-3.5,4-9.7,6.2-15.8,6.2
		c-19.4,0-35.5-15.6-35.5-34.7s16.1-34.7,35.5-34.7c10.7,0,20.5,4.9,27,12.3c0.7,0.9,0.5,2.1-0.3,2.7l-10.5,7.1
		c-1,0.7-2.2,0.6-3.2-0.3c-3.3-3.3-7.9-5.3-12.9-5.3c-10.1,0-18.2,8.1-18.2,18.2s8.1,18.2,18.2,18.2c5.7,0,10.6-2.7,13.8-6.9
		c0.3-0.3,0.5-1,0.5-1.5v-0.3c0-0.4-0.4-0.9-0.9-0.9L1232.5,104.2L1232.5,104.2z"/>
	<path class="st0" d="M894.8,147.9c0-0.9,0.7-1.5,1.5-1.5h2c0.9,0,1.5,0.7,1.5,1.5v40c0,15-9.8,26.6-28,26.6
		c-18.2,0-28-11.6-28-26.6v-40c0-0.9,0.7-1.5,1.5-1.5h2c0.9,0,1.5,0.7,1.5,1.5v39.8c0,12.6,8.1,21.8,23,21.8c15,0,23-9.2,23-21.8
		V147.9z"/>
	<path class="st0" d="M911.5,151.4c-0.9,0-1.5-0.7-1.5-1.5v-2c0-0.9,0.7-1.5,1.5-1.5h50.2c0.9,0,1.5,0.7,1.5,1.5v1.9
		c0,0.9-0.7,1.5-1.5,1.5h-21.4c-0.7,0-1.2,0.5-1.2,1.2v59.1c0,0.9-0.7,1.5-1.5,1.5h-2c-0.9,0-1.5-0.7-1.5-1.5v-59.1
		c0-0.7-0.5-1.2-1.2-1.2h-21.4V151.4z"/>
	<path class="st0" d="M1023.6,196.4c0.5-0.7,1.5-0.9,2.2-0.5l1.8,1c0.8,0.3,0.9,1.4,0.5,2c-6.2,9.4-16.9,15.7-29,15.7
		c-19.3,0-34.9-15.5-34.9-34.7c0-19.1,15.6-34.7,34.9-34.7c12.1,0,22.8,6.3,29,15.7c0.4,0.6,0.3,1.6-0.5,2l-1.7,0.9
		c-0.8,0.4-1.7,0.3-2.2-0.5c-5.4-7.9-14.3-13-24.5-13c-16.4,0-29.7,13.4-29.7,29.6c0,16.4,13.4,29.6,29.7,29.6
		C1009.3,209.5,1018.3,204.3,1023.6,196.4z"/>
</g>
<g>
	<g>
		<g>
			<g>
				<path class="st0" d="M218.4,187.8c33.4,27.8,70.7,33,70.7,33s-12.9-11.3-27.5-33C250.4,187.8,235.5,187.8,218.4,187.8z"/>
			</g>
			<g>
				<path class="st0" d="M242.8,154.5c-15.1,0-33.4,0-53.3,0c8.3,13.4,18.1,24.2,28.4,32.8c13.8,0.2,28.4,0.4,43.7,0.4
					C255.4,178.6,248.8,167.5,242.8,154.5z"/>
			</g>
			<g>
				<path class="st0" d="M219.7,87.5C189.2,14.1,117.2,0,117.2,0s24.4,37.6,44.5,86.1C179.3,86.7,198.6,87.2,219.7,87.5z"/>
			</g>
			<g>
				<path class="st0" d="M230.2,121.2c-16.4,0-35.4,0-55.6,0c0.1,0.4,0.3,0.9,0.4,1.3c3.6,11.6,8.4,21.9,13.8,30.9
					c16.6,0.4,34.6,0.7,53.9,0.9C238.1,144.4,233.8,133.3,230.2,121.2z"/>
			</g>
			<g>
				<path class="st0" d="M174.1,119.8c17.2,0.5,35.8,0.9,56,1.2c-1-3.3-1.9-6.7-2.8-10.1c-2-8.2-4.6-15.8-7.5-22.9
					c-17.3,0-37,0-57.4,0C166.6,98.2,170.6,108.9,174.1,119.8z"/>
			</g>
		</g>
		<g>
			<g>
				<path class="st0" d="M136.8,121.2c2.9,5.1,5.7,10.3,8.4,15.6c2.9,5.6,5.9,10.8,9.2,15.6c18.4,0.7,38.6,1.2,60.9,1.6
					c-6.5-9.7-12.7-20.6-18.3-32.8C178.1,121.2,157.5,121.2,136.8,121.2z"/>
			</g>
			<g>
				<path class="st0" d="M135.2,118.3c18.3,0.8,38.7,1.5,61.4,2.1c-0.6-1.3-1.1-2.5-1.7-3.8c-4.7-10.8-10.1-20.3-16-28.6
					c-20.2,0-41.7,0-62.7,0C122.5,97.4,129,107.6,135.2,118.3z"/>
			</g>
			<g>
				<path class="st0" d="M215.7,154.5c-18.2,0-38.7,0-59.8,0c9.5,13.6,20.5,24.1,31.8,32.2c16.8,0.4,35,0.7,54.6,0.9
					C233.8,178.9,224.6,167.9,215.7,154.5z"/>
			</g>
			<g>
				<path class="st0" d="M242.4,187.8c-15.1,0-33.4,0-53.2,0c40.4,28.2,84.8,26.9,84.8,26.9S260,206.1,242.4,187.8z"/>
			</g>
			<g>
				<path class="st0" d="M177.9,86.6c-42.8-59.2-110.1-61-110.1-61s21.9,23.8,45.6,58.3C132.2,85,153.6,85.9,177.9,86.6z"/>
			</g>
		</g>
		<g>
			<g>
				<path class="st0" d="M148.3,185.5c20.4,0.8,43.3,1.5,68.7,1.9c-10.7-8.3-22.7-19.1-34.6-32.8c-21.2,0-44,0-66.2,0
					C126.1,167.6,137,177.7,148.3,185.5z"/>
			</g>
			<g>
				<path class="st0" d="M85.5,115.4c20,1.5,43.6,2.8,71.4,3.8c-8.4-12.6-17.6-22.9-27.2-31.3c-24.1,0-48.2,0-69.7,0
					C68,96.1,76.7,105.3,85.5,115.4z"/>
			</g>
			<g>
				<path class="st0" d="M113.3,150.5c19.8,1.1,42.4,2.1,68.1,2.8c-7.4-8.7-14.8-18.6-21.7-29.7c-0.5-0.8-1-1.6-1.5-2.4
					c-22.4,0-45.7,0-67.7,0C98.3,130.4,106,140.3,113.3,150.5z"/>
			</g>
			<g>
				<path class="st0" d="M125.7,84.5C77.1,45.1,20.9,51.8,20.9,51.8s12.6,10.3,30,27.2C70.4,81,95,83,125.7,84.5z"/>
			</g>
			<g>
				<path class="st0" d="M151.9,187.8c47.8,30.7,100.3,21.6,100.3,21.6s-14.8-6.4-34.5-21.6C197.9,187.8,175.2,187.8,151.9,187.8z"
					/>
			</g>
		</g>
	</g>
	<g>
		<g>
			<g>
				<path class="st0" d="M359.2,187.8c-33.4,27.8-70.7,33-70.7,33s12.9-11.3,27.5-33C327.2,187.8,342.1,187.8,359.2,187.8z"/>
			</g>
			<g>
				<path class="st0" d="M334.8,154.5c15.1,0,33.4,0,53.3,0c-8.3,13.4-18.1,24.2-28.4,32.8c-13.8,0.2-28.4,0.4-43.7,0.4
					C322.3,178.6,328.8,167.5,334.8,154.5z"/>
			</g>
			<g>
				<path class="st0" d="M358,87.5C388.5,14.1,460.5,0,460.5,0S436.1,37.6,416,86.1C398.3,86.7,379,87.2,358,87.5z"/>
			</g>
			<g>
				<path class="st0" d="M347.4,121.2c16.4,0,35.4,0,55.6,0c-0.1,0.4-0.3,0.9-0.4,1.3c-3.6,11.6-8.4,21.9-13.8,30.9
					c-16.6,0.4-34.6,0.7-53.9,0.9C339.5,144.4,343.8,133.3,347.4,121.2z"/>
			</g>
			<g>
				<path class="st0" d="M403.5,119.8c-17.2,0.5-35.8,0.9-56,1.2c1-3.3,1.9-6.7,2.8-10.1c2-8.2,4.6-15.8,7.5-22.9
					c17.3,0,37,0,57.4,0C411,98.2,407,108.9,403.5,119.8z"/>
			</g>
		</g>
		<g>
			<g>
				<path class="st0" d="M440.8,121.2c-2.9,5.1-5.7,10.3-8.4,15.6c-2.9,5.6-5.9,10.8-9.2,15.6c-18.4,0.7-38.6,1.2-60.9,1.6
					c6.5-9.7,12.7-20.6,18.3-32.8C399.5,121.2,420.1,121.2,440.8,121.2z"/>
			</g>
			<g>
				<path class="st0" d="M442.5,118.3c-18.3,0.8-38.7,1.5-61.4,2.1c0.6-1.3,1.1-2.5,1.7-3.8c4.7-10.8,10.1-20.3,16-28.6
					c20.2,0,41.7,0,62.7,0C455.1,97.4,448.6,107.6,442.5,118.3z"/>
			</g>
			<g>
				<path class="st0" d="M362,154.5c18.2,0,38.7,0,59.8,0c-9.5,13.6-20.5,24.1-31.8,32.2c-16.8,0.4-35,0.7-54.6,0.9
					C343.8,178.9,353.1,167.9,362,154.5z"/>
			</g>
			<g>
				<path class="st0" d="M335.2,187.8c15.1,0,33.4,0,53.2,0c-40.4,28.2-84.8,26.9-84.8,26.9S317.6,206.1,335.2,187.8z"/>
			</g>
			<g>
				<path class="st0" d="M399.8,86.6c42.8-59.2,110.1-61,110.1-61S488,49.4,464.3,83.9C445.4,85,424,85.9,399.8,86.6z"/>
			</g>
		</g>
		<g>
			<g>
				<path class="st0" d="M429.3,185.5c-20.4,0.8-43.3,1.5-68.7,1.9c10.7-8.3,22.7-19.1,34.6-32.8c21.2,0,44,0,66.2,0
					C451.6,167.6,440.6,177.7,429.3,185.5z"/>
			</g>
			<g>
				<path class="st0" d="M492.1,115.4c-20,1.5-43.6,2.8-71.4,3.8c8.4-12.6,17.6-22.9,27.2-31.3c24.1,0,48.2,0,69.7,0
					C509.6,96.1,500.9,105.3,492.1,115.4z"/>
			</g>
			<g>
				<path class="st0" d="M464.4,150.5c-19.8,1.1-42.4,2.1-68.1,2.8c7.4-8.7,14.8-18.6,21.7-29.7c0.5-0.8,1-1.6,1.5-2.4
					c22.4,0,45.7,0,67.7,0C479.3,130.4,471.6,140.3,464.4,150.5z"/>
			</g>
			<g>
				<path class="st0" d="M452,84.5c48.6-39.4,104.8-32.7,104.8-32.7s-12.6,10.3-30,27.2C507.2,81,482.7,83,452,84.5z"/>
			</g>
			<g>
				<path class="st0" d="M425.8,187.8c-47.8,30.7-100.3,21.6-100.3,21.6s14.8-6.4,34.5-21.6C379.7,187.8,402.4,187.8,425.8,187.8z"
					/>
			</g>
		</g>
	</g>
</g>
<rect x="123.9" y="209.4" class="st0" width="329.9" height="11.4"/>
</svg>
