<?xml version="1.0" standalone="no"?>
<!DOCTYPE svg PUBLIC "-//W3C//DTD SVG 20010904//EN"
 "http://www.w3.org/TR/2001/REC-SVG-20010904/DTD/svg10.dtd">
<svg version="1.0" xmlns="http://www.w3.org/2000/svg"
 width="408.930410055" height="244.540385213" viewBox="0 0 1000.000000 598.000000"
 preserveAspectRatio="xMidYMid meet">
<metadata>
Created by potrace 1.15, written by Peter Selinger 2001-2017
</metadata>
<g transform="translate(0.000000,598.000000) scale(0.100000,-0.100000)"
fill="#000000" stroke="none">
<path d="M1063 5102 c-140 -28 -272 -121 -340 -240 l-30 -53 -32 36 c-25 28
-31 45 -31 80 0 24 5 56 10 71 6 15 8 29 6 32 -10 9 -76 -40 -125 -93 -61 -68
-85 -133 -85 -235 -1 -87 19 -138 68 -175 32 -24 121 -54 131 -43 3 3 -1 18
-10 34 -17 33 -20 110 -5 149 l10 27 31 -27 c36 -29 102 -65 121 -65 7 0 24
25 37 55 22 51 88 125 111 125 6 0 10 -18 10 -41 0 -46 21 -98 51 -125 18 -16
21 -15 69 30 49 46 103 76 135 76 14 0 14 -3 -1 -31 -11 -22 -14 -42 -9 -63 4
-17 8 -57 9 -89 l1 -58 30 7 c104 22 151 98 135 221 -3 27 -2 64 2 81 10 37
59 79 119 103 l43 16 -52 12 c-112 24 -240 6 -331 -45 -49 -27 -56 -24 -67 34
-10 51 20 114 78 167 l51 46 -36 -3 c-19 -1 -66 -8 -104 -16z"/>
<path d="M4924 5065 c-77 -77 -87 -194 -35 -415 18 -74 35 -166 38 -203 l6
-68 -34 3 c-31 3 -33 6 -36 43 -6 63 -39 166 -71 216 -125 195 -395 95 -352
-131 18 -95 81 -150 170 -150 l41 0 -20 26 c-58 73 20 151 93 93 26 -20 56
-68 56 -89 0 -5 -15 -10 -33 -10 -40 0 -67 -25 -67 -62 0 -33 29 -58 68 -58
37 0 40 -10 12 -35 -26 -23 -64 -13 -101 27 l-28 32 -11 -28 c-19 -51 -12 -86
24 -122 30 -30 40 -34 86 -34 46 0 56 4 85 33 21 21 38 52 46 80 10 42 14 47
40 47 25 0 29 -4 29 -30 0 -47 -39 -137 -70 -164 l-29 -24 21 -27 c28 -36 76
-55 138 -55 58 0 99 18 129 57 l22 27 -25 20 c-32 28 -65 95 -73 152 l-6 45
34 -3 c31 -3 34 -7 42 -45 5 -27 21 -56 41 -78 29 -30 40 -35 80 -35 57 0 98
20 114 55 15 32 15 80 2 106 -10 18 -13 17 -46 -16 -39 -39 -72 -45 -97 -17
-24 27 -21 32 17 32 42 0 66 22 66 60 0 38 -24 60 -66 60 -19 0 -34 2 -34 5 0
17 43 86 62 99 73 52 142 -28 86 -99 l-22 -28 58 5 c89 7 138 53 157 148 22
104 -34 204 -128 229 -140 38 -266 -93 -292 -303 -6 -49 -7 -51 -40 -54 l-34
-3 7 68 c3 37 20 124 36 193 40 168 47 250 26 322 -33 114 -121 164 -182 103z"/>
<path d="M2165 5055 c-49 -18 -72 -44 -87 -102 -17 -68 -39 -83 -119 -83 -58
0 -72 -4 -98 -25 -54 -46 -64 -122 -21 -165 18 -18 18 -19 -10 -25 -41 -9 -80
-58 -80 -102 0 -53 25 -95 75 -126 55 -35 64 -63 41 -126 -20 -57 -20 -93 -1
-131 21 -41 68 -63 122 -57 43 5 43 4 43 -28 0 -63 72 -114 143 -101 18 3 52
22 76 41 50 40 65 42 102 17 81 -54 97 -62 124 -62 64 0 131 65 123 119 -4 26
-2 29 13 20 27 -14 82 -11 107 7 52 36 67 108 37 178 -23 54 -13 79 49 125 35
26 58 52 65 73 21 64 -10 134 -66 153 l-30 10 19 30 c29 46 18 102 -26 142
-32 30 -42 33 -99 33 -79 0 -101 15 -121 83 -8 29 -26 63 -38 74 -56 52 -129
53 -172 2 l-25 -30 -28 30 c-35 38 -67 45 -118 26z m102 -191 c39 -29 53 -30
86 -4 14 12 39 25 56 31 52 18 110 -28 102 -82 -1 -14 5 -16 42 -12 39 5 46 2
66 -23 23 -29 24 -44 6 -130 -6 -28 -3 -35 33 -64 71 -57 76 -119 13 -158 -27
-16 -28 -19 -15 -42 19 -36 17 -55 -10 -87 -20 -23 -34 -29 -82 -33 l-59 -5
-26 -54 c-14 -29 -34 -60 -44 -67 -29 -21 -73 -17 -100 10 l-24 24 -22 -24
c-47 -50 -118 -22 -144 56 -18 54 -27 60 -89 60 -80 0 -127 71 -84 125 19 24
19 24 -7 31 -33 8 -55 40 -55 79 0 34 21 63 63 89 31 19 30 13 12 121 -6 33
-3 45 15 68 20 25 28 28 66 25 41 -3 44 -1 44 22 1 31 19 57 51 69 32 12 67 4
106 -25z"/>
<path d="M2193 4780 c-12 -5 -25 -20 -28 -33 -5 -17 -12 -23 -24 -20 -9 2 -28
-5 -42 -15 -21 -17 -24 -28 -22 -73 2 -45 -2 -58 -22 -79 -37 -39 -42 -74 -13
-103 19 -19 22 -28 13 -41 -7 -12 -6 -23 5 -43 15 -27 33 -36 92 -48 17 -3 29
-14 36 -34 6 -16 22 -37 37 -47 22 -15 32 -16 57 -6 20 7 37 8 49 2 10 -6 26
-10 37 -10 19 0 62 39 62 57 0 18 36 43 64 43 39 0 80 44 73 79 -4 20 0 32 14
44 27 24 24 61 -11 101 -26 29 -30 40 -28 86 2 45 -1 55 -22 72 -13 11 -32 17
-42 15 -13 -4 -18 0 -18 13 0 21 -35 50 -60 50 -8 0 -28 -7 -44 -15 -15 -8
-36 -15 -46 -15 -10 0 -31 7 -46 15 -33 17 -40 17 -71 5z m198 -143 c89 -59
89 -185 0 -244 -71 -48 -175 -20 -213 57 -50 98 21 210 132 210 32 0 58 -7 81
-23z"/>
<path d="M2266 4569 c-65 -51 0 -153 79 -123 8 4 22 19 30 35 18 34 8 69 -27
93 -30 21 -50 20 -82 -5z"/>
<path d="M3617 5009 c-36 -27 -52 -84 -39 -132 10 -34 9 -36 -8 -27 -10 6 -33
10 -50 10 -40 0 -90 -47 -90 -85 0 -33 25 -87 50 -110 19 -17 20 -17 27 1 15
41 53 45 88 9 48 -47 15 -135 -51 -135 -18 0 -40 14 -70 44 l-44 43 -6 -34
c-7 -36 -54 -83 -83 -83 -28 0 -69 37 -76 70 -13 58 35 92 76 54 17 -15 18
-13 28 23 13 49 2 91 -31 116 -35 26 -73 16 -93 -23 l-16 -30 -38 40 c-31 32
-45 40 -74 40 -21 0 -37 -3 -37 -6 0 -3 11 -20 24 -37 41 -55 103 -173 140
-264 l35 -88 369 -3 368 -2 43 105 c24 59 68 145 98 193 30 48 57 90 60 95 2
4 -12 7 -33 7 -29 0 -44 -8 -74 -38 l-38 -38 -27 33 c-30 38 -52 41 -88 13
-32 -25 -40 -60 -27 -111 11 -38 12 -40 29 -25 41 38 89 4 76 -54 -7 -33 -48
-70 -76 -70 -29 0 -78 48 -85 85 l-6 33 -42 -44 c-48 -50 -78 -56 -120 -23
-35 28 -36 80 -1 114 38 39 85 28 85 -19 0 -19 0 -19 21 0 62 56 73 144 22
184 -29 23 -92 27 -112 8 -11 -11 -12 -9 -8 7 22 77 16 108 -29 150 -33 30
-35 30 -67 4z"/>
<path d="M5902 4978 c-12 -6 -25 -22 -28 -34 -3 -13 -21 -32 -40 -43 -52 -31
-45 -51 15 -44 43 5 50 3 61 -16 23 -44 15 -95 -29 -166 -36 -60 -41 -76 -41
-128 0 -86 18 -133 71 -191 52 -57 123 -100 208 -127 65 -19 70 -32 46 -96
l-18 -45 -41 5 c-23 3 -49 9 -58 12 -18 7 -43 -28 -33 -45 4 -6 60 -10 131
-10 l124 0 0 26 c0 25 -2 26 -35 20 -43 -8 -45 3 -13 76 16 38 19 53 10 56 -7
2 -47 29 -90 59 -203 145 -257 252 -166 332 19 17 36 31 39 31 2 0 -4 -18 -12
-40 -15 -36 -14 -43 1 -84 30 -79 143 -177 331 -287 161 -94 260 -149 268
-149 18 0 3 28 -50 94 -31 39 -61 77 -67 85 -6 8 49 -25 122 -74 127 -85 134
-88 169 -79 21 5 45 21 57 37 19 26 19 30 6 55 -9 14 -47 44 -85 66 -247 139
-393 244 -526 376 -100 99 -137 152 -170 242 -31 87 -89 118 -157 86z"/>
<path d="M637 4392 c-22 -24 -21 -55 1 -75 16 -15 52 -17 295 -17 302 0 307 1
307 59 0 50 -3 51 -305 51 -260 0 -283 -1 -298 -18z"/>
<path d="M3290 4293 c0 -10 3 -35 7 -56 l6 -39 344 5 c190 3 346 7 348 9 1 2
6 24 9 51 l7 47 -360 0 c-337 0 -361 -1 -361 -17z"/>
<path d="M713 4204 c-15 -24 -15 -29 -2 -53 l15 -26 198 -3 c175 -2 201 0 217
14 24 22 24 56 1 77 -16 15 -46 17 -215 17 l-197 0 -17 -26z"/>
<path d="M3240 4101 c-14 -27 -13 -47 6 -65 13 -14 64 -16 404 -16 340 0 391
2 404 16 19 18 20 38 6 65 -10 18 -25 19 -410 19 -385 0 -400 -1 -410 -19z"/>
<path d="M808 4039 c-25 -14 -24 -75 1 -89 11 -5 69 -10 130 -10 106 0 111 1
127 24 13 22 14 29 2 53 l-13 28 -115 2 c-66 2 -122 -2 -132 -8z"/>
<path d="M6615 3424 c-131 -20 -236 -96 -268 -194 -36 -113 -14 -241 56 -317
53 -58 103 -82 260 -129 191 -56 232 -90 232 -197 0 -107 -58 -168 -172 -183
-117 -14 -264 43 -271 106 -1 14 -5 44 -8 68 l-5 42 -65 0 -64 0 0 -165 0
-165 61 0 c52 0 62 3 66 20 7 25 15 25 81 0 156 -60 386 -22 473 77 71 82 96
209 65 327 -34 124 -102 172 -339 242 -144 42 -184 63 -210 114 -22 41 -18
127 8 166 42 65 193 88 293 44 67 -30 79 -44 87 -106 l6 -54 65 0 65 0 -3 148
-3 147 -57 3 c-32 2 -58 -1 -58 -5 -1 -29 -17 -32 -67 -13 -51 19 -173 32
-228 24z"/>
<path d="M427 3413 c-3 -5 -4 -28 -3 -53 l1 -45 44 -6 c72 -10 71 -3 71 -364
0 -337 5 -387 49 -473 26 -50 86 -109 141 -137 174 -88 447 -64 565 51 97 94
114 180 115 590 0 338 -1 334 74 334 l37 0 -3 53 -3 52 -195 0 -195 0 -2 -52
-2 -52 70 -3 70 -3 0 -350 c0 -195 -5 -365 -10 -383 -32 -109 -108 -155 -255
-155 -143 0 -223 47 -251 148 -17 61 -17 60 -16 438 l1 307 71 0 70 0 -3 53
-3 52 -217 3 c-119 1 -219 -1 -221 -5z"/>
<path d="M1570 3365 l0 -55 33 0 c18 0 43 -7 55 -16 l22 -15 0 -429 c0 -414
-1 -430 -19 -440 -11 -5 -36 -10 -55 -10 l-36 0 0 -55 0 -55 198 2 197 3 3 53
3 52 -70 0 -71 0 0 377 c0 207 3 373 7 370 3 -4 126 -197 273 -429 l267 -423
79 0 79 0 5 493 c5 474 6 494 24 508 11 8 36 14 56 14 l37 0 -1 53 -1 52 -197
3 -198 2 0 -55 0 -55 70 0 70 0 0 -357 0 -358 -71 110 c-38 61 -149 236 -246
390 -96 154 -181 290 -189 303 -14 21 -20 22 -169 22 l-155 0 0 -55z"/>
<path d="M2700 3365 l0 -55 45 0 c32 0 51 -6 65 -20 19 -19 20 -33 20 -438 0
-477 5 -452 -83 -452 l-47 0 0 -55 0 -55 223 2 222 3 3 53 3 52 -50 0 c-86 0
-81 -26 -81 455 l0 424 22 15 c12 9 42 16 66 16 l43 0 -3 53 -3 52 -222 3
-223 2 0 -55z"/>
<path d="M3197 3413 c-2 -5 -5 -29 -6 -54 l-1 -46 40 -7 c26 -4 45 -14 54 -29
7 -12 89 -236 181 -497 92 -261 173 -478 179 -482 6 -4 52 -8 102 -8 l91 0
177 488 c98 268 185 495 193 504 9 10 31 20 49 24 34 6 34 7 34 60 l0 54 -195
0 -195 0 0 -54 0 -53 50 -5 c57 -6 80 -21 80 -53 0 -12 -58 -188 -130 -390
-71 -202 -130 -370 -130 -374 0 -3 -5 1 -9 9 -12 20 -271 785 -271 799 0 7 25
11 65 11 l65 0 0 55 0 55 -209 0 c-116 0 -212 -3 -214 -7z"/>
<path d="M4340 3365 l0 -55 38 0 c75 0 72 16 72 -461 0 -317 -3 -428 -12 -437
-7 -7 -32 -12 -56 -12 l-43 0 3 -52 3 -53 438 -3 437 -3 0 161 0 160 -59 0
-59 0 -6 -62 c-4 -35 -9 -80 -12 -100 l-6 -38 -219 0 -219 0 0 200 0 200 110
0 110 0 1 -35 c1 -19 3 -39 4 -45 1 -5 3 -19 4 -30 1 -19 7 -21 59 -18 l57 3
3 165 c4 215 5 210 -62 210 -52 0 -54 -1 -60 -31 -3 -17 -6 -49 -6 -70 l0 -39
-110 0 -110 0 0 190 0 190 214 0 214 0 7 -82 c4 -46 12 -89 17 -95 15 -18 104
-17 111 1 3 8 5 76 4 152 l-2 139 -432 3 -433 2 0 -55z"/>
<path d="M5260 3366 l0 -56 33 0 c18 0 43 -7 55 -16 l22 -15 0 -429 c0 -414
-1 -430 -19 -440 -11 -5 -36 -10 -55 -10 l-36 0 0 -55 0 -55 223 2 222 3 1 53
1 52 -73 0 -74 0 0 190 0 190 112 0 c130 0 183 -18 218 -75 18 -29 46 -142 90
-357 l11 -58 119 0 c65 0 125 3 134 6 12 4 16 20 16 55 l0 49 -39 0 c-21 0
-44 6 -50 14 -7 8 -25 62 -41 120 -50 185 -99 263 -181 287 -21 7 -39 15 -39
19 0 3 25 14 56 24 77 24 139 83 159 149 43 145 -12 290 -132 347 -96 46 -143
52 -445 57 l-288 5 0 -56z m596 -94 c51 -26 72 -57 85 -126 16 -76 -2 -153
-44 -193 -50 -48 -90 -56 -259 -54 l-78 1 0 201 0 201 128 -4 c105 -3 134 -8
168 -26z"/>
<path d="M7126 3412 c-2 -4 -4 -29 -4 -55 l0 -47 42 0 c23 0 52 -7 64 -16 l22
-15 0 -429 c0 -487 7 -450 -85 -450 l-46 0 3 -52 3 -53 223 -3 222 -3 0 56 0
55 -49 0 c-84 0 -81 -18 -81 457 0 400 1 414 20 433 14 14 33 20 65 20 l45 0
0 55 0 55 -220 0 c-121 -1 -222 -4 -224 -8z"/>
<path d="M7634 3407 c-2 -7 -3 -87 -2 -177 l3 -165 58 -1 c36 -1 60 3 62 10 2
6 7 59 10 119 l7 107 119 0 119 0 0 -428 c0 -492 3 -472 -81 -472 l-50 0 3
-52 3 -53 218 -3 217 -2 0 55 0 55 -48 0 c-26 0 -53 5 -60 12 -9 9 -12 123
-12 450 l0 438 115 0 114 0 5 -32 c4 -28 15 -158 16 -194 0 -6 25 -12 60 -13
l60 -2 -2 178 -3 178 -463 3 c-372 2 -464 0 -468 -11z"/>
<path d="M8630 3365 c0 -52 1 -55 25 -55 14 0 38 -12 54 -27 16 -16 99 -142
185 -281 l156 -252 0 -153 c0 -185 -5 -197 -81 -197 l-49 0 0 -55 0 -55 220 0
220 0 0 55 0 55 -49 0 c-28 0 -53 6 -59 13 -7 8 -12 78 -12 185 l-2 172 143
232 c177 291 181 296 225 304 l35 6 -3 52 -3 51 -190 0 -190 0 -3 -51 -3 -51
46 -5 c53 -6 75 -22 75 -53 0 -20 -166 -313 -194 -342 -8 -9 -41 39 -133 190
l-123 202 65 3 65 3 0 54 0 55 -210 0 -210 0 0 -55z"/>
<path d="M825 1961 c-191 -54 -327 -205 -369 -406 -16 -81 -15 -235 4 -310 85
-343 449 -504 777 -344 117 56 204 163 250 304 22 68 26 98 26 205 0 109 -3
135 -26 207 -60 181 -186 301 -364 347 -80 21 -221 20 -298 -3z m301 -144 c92
-47 152 -134 179 -263 28 -134 15 -295 -34 -400 -57 -123 -158 -188 -292 -188
-211 0 -338 166 -339 440 0 94 24 214 55 274 37 71 113 134 195 161 14 5 61 7
105 5 62 -2 91 -8 131 -29z"/>
<path d="M1530 1931 c0 -61 7 -71 50 -71 73 0 70 17 70 -449 0 -318 -3 -421
-12 -434 -8 -10 -31 -17 -58 -19 l-45 -3 -3 -52 -3 -53 225 0 226 0 0 55 c0
50 -2 54 -22 53 -13 0 -44 0 -70 1 l-48 1 0 190 0 190 104 0 104 0 7 -70 7
-70 59 0 59 0 0 195 0 195 -59 0 -58 0 -7 -70 -7 -70 -105 0 -104 0 0 200 0
200 209 0 208 0 8 -81 c3 -45 9 -88 12 -95 3 -10 23 -14 59 -14 l54 0 0 155 0
155 -430 0 -430 0 0 -39z"/>
<path d="M2780 1915 l0 -55 45 0 c34 0 47 -5 55 -19 16 -31 14 -855 -3 -869
-7 -6 -32 -12 -55 -13 l-42 -3 0 -53 0 -53 220 0 220 0 0 55 c0 30 -3 54 -7
54 -5 -1 -36 -1 -70 0 l-63 1 0 205 0 205 250 0 250 0 0 -205 c0 -157 -3 -205
-12 -206 -7 -1 -39 -1 -70 1 l-58 2 0 -56 0 -56 226 0 225 0 -3 52 -3 52 -45
4 c-26 2 -50 10 -57 20 -10 12 -13 114 -13 432 0 471 -4 450 78 450 l42 0 0
55 0 55 -225 0 -225 0 0 -55 0 -55 70 0 70 0 0 -190 0 -190 -250 0 -250 0 0
190 0 190 70 0 70 0 0 55 0 55 -220 0 -220 0 0 -55z"/>
<path d="M3940 1915 l0 -55 44 0 c25 0 48 -6 53 -12 4 -7 10 -170 13 -363 5
-333 7 -353 28 -406 31 -78 71 -130 128 -167 68 -46 133 -63 254 -69 232 -11
377 68 432 236 20 61 22 90 26 411 2 216 8 350 14 358 6 6 30 12 54 12 l44 0
0 55 0 55 -197 -2 -198 -3 0 -50 0 -50 73 -3 74 -3 -4 -352 c-5 -373 -7 -390
-55 -455 -37 -49 -94 -74 -188 -80 -153 -9 -247 41 -280 150 -12 42 -15 115
-15 395 l0 343 70 0 70 0 0 55 0 55 -220 0 -220 0 0 -55z"/>
<path d="M5080 1915 l0 -55 44 0 c24 0 48 -6 55 -13 7 -9 11 -144 11 -437 1
-473 4 -453 -69 -453 l-41 0 0 -54 0 -53 425 0 425 0 0 175 0 175 -65 0 -65 0
-1 -52 c0 -52 -9 -171 -13 -175 -2 -2 -334 -5 -388 -3 -17 0 -18 28 -18 445
l0 444 83 3 82 3 0 50 0 50 -233 3 -232 2 0 -55z"/>
<path d="M5980 1915 l0 -55 43 0 c24 0 48 -5 55 -12 19 -19 17 -861 -2 -877
-7 -6 -32 -12 -55 -13 l-41 -1 0 -54 0 -53 430 0 430 0 0 175 0 175 -70 0 -70
0 -1 -65 c-1 -36 -3 -69 -4 -75 -1 -5 -3 -28 -4 -50 l-1 -40 -205 0 -205 0 0
445 0 444 83 3 82 3 0 53 1 52 -233 0 -233 0 0 -55z"/>
</g>
</svg>
