<svg xmlns="http://www.w3.org/2000/svg" xmlns:xlink="http://www.w3.org/1999/xlink" viewBox="0 0 81.61 19.82"><defs><style>.cls-1{fill:none;}.cls-2{fill:#fff;}.cls-3{clip-path:url(#clip-path);}</style><clipPath id="clip-path"><rect class="cls-1" width="81.61" height="19.82"/></clipPath></defs><title>Asset 1</title><g id="Layer_2" data-name="Layer 2"><g id="Layer_1-2" data-name="Layer 1"><polygon class="cls-2" points="14.3 0 3.81 9.85 3.81 0.28 0 0.28 0 19.54 3.81 19.54 3.81 9.97 14.3 19.82 16.89 17.39 8.92 9.91 16.89 2.43 14.3 0"/><rect class="cls-2" x="60.82" y="9.91" width="3.81" height="9.63"/><polygon class="cls-2" points="63.51 0 60.89 2.46 71.37 12.31 77.8 6.26 77.8 19.54 81.61 19.54 81.61 0.28 78.92 0.28 71.37 7.38 63.51 0"/><g class="cls-3"><path class="cls-2" d="M47.45,19.82c-5.82,0-10.55-4.44-10.55-9.91S41.63,0,47.45,0,58,4.45,58,9.91s-4.73,9.91-10.54,9.91m0-16.16A6.46,6.46,0,0,0,40.8,9.91a6.66,6.66,0,0,0,13.3,0,6.46,6.46,0,0,0-6.65-6.25"/><path class="cls-2" d="M32.81,14.43a6.85,6.85,0,0,1-4.59,1.73,6.46,6.46,0,0,1-6.65-6.25,6.46,6.46,0,0,1,6.65-6.25A6.81,6.81,0,0,1,32.81,5.4l2.75-2.59A10.84,10.84,0,0,0,28.22,0C22.4,0,17.67,4.45,17.67,9.91s4.73,9.91,10.55,9.91A10.84,10.84,0,0,0,35.56,17Z"/></g></g></g></svg>