<svg xmlns="http://www.w3.org/2000/svg" xmlns:xlink="http://www.w3.org/1999/xlink" viewBox="0 0 128.08 20.91"><defs><style>.cls-1{fill:none;}.cls-2{clip-path:url(#clip-path);}.cls-3{fill:#fff;}</style><clipPath id="clip-path" transform="translate(0 0)"><rect class="cls-1" width="128.08" height="20.91"/></clipPath></defs><title>Asset 3</title><g id="Layer_2" data-name="Layer 2"><g id="Layer_1-2" data-name="Layer 1"><g class="cls-2"><path class="cls-3" d="M19.09,7.32a1,1,0,0,1-.35.69,3.47,3.47,0,0,1-.91.58A6.11,6.11,0,0,1,16.58,9a6.05,6.05,0,0,1-1.39.16l-.56,0A2.87,2.87,0,0,1,14,9a1.56,1.56,0,0,1-.56-.29.59.59,0,0,1-.23-.49,1,1,0,0,1,.38-.71,3.48,3.48,0,0,1,.95-.58,7.56,7.56,0,0,1,1.27-.41,6,6,0,0,1,1.3-.15l.56,0a3.07,3.07,0,0,1,.67.14,1.8,1.8,0,0,1,.55.29.61.61,0,0,1,.23.49M16.43,18.77a3.54,3.54,0,0,1-.07.73,2.07,2.07,0,0,1-.22.65,1.54,1.54,0,0,1-.42.46,1.14,1.14,0,0,1-.63.17A2.07,2.07,0,0,1,14,20.47,4.77,4.77,0,0,1,13,19.62a9.2,9.2,0,0,1-1-1.25,10.2,10.2,0,0,1-.81-1.49,9.41,9.41,0,0,1-.54-1.57,6,6,0,0,1-.21-1.52,4.08,4.08,0,0,1,.06-.68,2.24,2.24,0,0,1,.2-.65,1.4,1.4,0,0,1,.41-.49,1.09,1.09,0,0,1,.67-.19,2,2,0,0,1,1,.31,5.27,5.27,0,0,1,1.06.84,8.33,8.33,0,0,1,1,1.24,10.7,10.7,0,0,1,.82,1.48,10.25,10.25,0,0,1,.56,1.58,6.51,6.51,0,0,1,.2,1.54M14.34,1.37A6.89,6.89,0,0,1,14.14,3c-.14.55-.3,1.06-.48,1.56-.09.22-.22.53-.4.91a9.1,9.1,0,0,1-.63,1.14,6.17,6.17,0,0,1-.77,1,1.17,1.17,0,0,1-.81.41.47.47,0,0,1-.37-.15.93.93,0,0,1-.21-.36A1.64,1.64,0,0,1,10.38,7c0-.16,0-.29,0-.4A6.89,6.89,0,0,1,10.56,5a14.23,14.23,0,0,1,.49-1.56,6.77,6.77,0,0,1,.39-.91,10,10,0,0,1,.63-1.15,6.17,6.17,0,0,1,.77-1A1.17,1.17,0,0,1,13.66,0,.43.43,0,0,1,14,.15a1.23,1.23,0,0,1,.21.37,2.42,2.42,0,0,1,.1.45c0,.16,0,.29,0,.4M9,11.56a1.71,1.71,0,0,1-.39,1,7.26,7.26,0,0,1-1,1.11,13,13,0,0,1-1.42,1.12,18.09,18.09,0,0,1-1.6,1,11,11,0,0,1-1.55.7,4,4,0,0,1-1.29.27,1.2,1.2,0,0,1-.52-.12A.42.42,0,0,1,1,16.15a1.74,1.74,0,0,1,.38-.94,6.69,6.69,0,0,1,1-1.1A13.1,13.1,0,0,1,3.78,13a16.11,16.11,0,0,1,1.6-1,11.07,11.07,0,0,1,1.56-.7A4.07,4.07,0,0,1,8.27,11a1.3,1.3,0,0,1,.51.11.41.41,0,0,1,.24.42M9.1,8.78a.75.75,0,0,1-.33.64A2.81,2.81,0,0,1,8,9.78a4.81,4.81,0,0,1-.92.17c-.32,0-.58,0-.77,0a10.34,10.34,0,0,1-2.22-.24c-.17,0-.4-.09-.67-.16s-.56-.17-.86-.28a8.54,8.54,0,0,1-.9-.37,6.47,6.47,0,0,1-.83-.48,2.61,2.61,0,0,1-.59-.55A1,1,0,0,1,0,7.29a.73.73,0,0,1,.34-.64,2.74,2.74,0,0,1,.79-.36,4.77,4.77,0,0,1,.93-.17c.31,0,.57,0,.76,0A10.94,10.94,0,0,1,5,6.31a11.25,11.25,0,0,1,2,.62,6.12,6.12,0,0,1,1.51.86,1.33,1.33,0,0,1,.59,1" transform="translate(0 0)"/><path class="cls-3" d="M29.1,14.9a2.26,2.26,0,0,1-.35,1.27,2.69,2.69,0,0,1-.88.83,3.9,3.9,0,0,1-1.19.47,5.94,5.94,0,0,1-1.32.15,4.62,4.62,0,0,1-.74-.06c-.24,0-.49-.09-.73-.15s-.44-.14-.72-.25a4.8,4.8,0,0,1-.78-.41,2.4,2.4,0,0,1-.62-.56,1.08,1.08,0,0,1-.26-.7,1.13,1.13,0,0,1,.31-.8,1.08,1.08,0,0,1,.82-.33.74.74,0,0,1,.51.2l.49.43a3,3,0,0,0,.66.44,2.53,2.53,0,0,0,1.05.19l.41,0a1.43,1.43,0,0,0,.42-.09.81.81,0,0,0,.33-.21.63.63,0,0,0,.13-.41q0-.29-.36-.45a6,6,0,0,0-.9-.33l-1.17-.31a5.1,5.1,0,0,1-1.16-.46,3,3,0,0,1-.9-.75,1.87,1.87,0,0,1-.36-1.19,2.67,2.67,0,0,1,.31-1.31,2.5,2.5,0,0,1,.82-.86,3.83,3.83,0,0,1,1.17-.47,6.55,6.55,0,0,1,1.34-.14,5.4,5.4,0,0,1,.77.06,4.7,4.7,0,0,1,.82.21,4.3,4.3,0,0,1,.76.34,2.36,2.36,0,0,1,.62.49,3.47,3.47,0,0,1,.26.37.77.77,0,0,1,.13.43,1,1,0,0,1-.3.74.93.93,0,0,1-.73.33,1,1,0,0,1-.62-.17c-.14-.1-.28-.22-.42-.34a2.07,2.07,0,0,0-.51-.35,2,2,0,0,0-.9-.16l-.38,0a1.51,1.51,0,0,0-.38.1.86.86,0,0,0-.29.21.52.52,0,0,0,.24.83,6.94,6.94,0,0,0,.93.29c.37.08.76.18,1.19.29a5.32,5.32,0,0,1,1.19.45,2.75,2.75,0,0,1,.92.81,2.25,2.25,0,0,1,.37,1.33" transform="translate(0 0)"/><path class="cls-3" d="M41.17,16.31A1.18,1.18,0,0,1,40,17.5a1.16,1.16,0,0,1-.85-.34,1.1,1.1,0,0,1-.35-.83V11.78a1.09,1.09,0,0,0-.33-.8,1.16,1.16,0,0,0-.83-.34,1.14,1.14,0,0,0-.81.34,1.1,1.1,0,0,0-.34.8v4.53a1.2,1.2,0,0,1-.33.84,1.1,1.1,0,0,1-.84.35,1.17,1.17,0,0,1-.86-.34,1.1,1.1,0,0,1-.35-.83V11.78a1.07,1.07,0,0,0-.34-.8,1.13,1.13,0,0,0-.82-.34,1.15,1.15,0,0,0-.82.34,1.07,1.07,0,0,0-.34.8v4.53a1.15,1.15,0,0,1-.35.85,1.23,1.23,0,0,1-1.69,0,1.12,1.12,0,0,1-.35-.84V9.94a1.18,1.18,0,0,1,1.2-1.19,1.31,1.31,0,0,1,.71.17.76.76,0,0,1,.36.54,2.22,2.22,0,0,1,1.83-.84,4.09,4.09,0,0,1,1.28.2,2.61,2.61,0,0,1,1.1.76A2.68,2.68,0,0,1,37,8.84a3.57,3.57,0,0,1,1.17-.22,3.35,3.35,0,0,1,1.19.21,2.66,2.66,0,0,1,.95.6,2.92,2.92,0,0,1,.64,1,3.57,3.57,0,0,1,.23,1.35Z" transform="translate(0 0)"/><path class="cls-3" d="M45.45,6.53a1.35,1.35,0,0,1-.4,1,1.34,1.34,0,0,1-1.93,0,1.28,1.28,0,0,1-.41-1A1.34,1.34,0,0,1,42.82,6a1.53,1.53,0,0,1,.74-.71,1.17,1.17,0,0,1,.52-.12,1.27,1.27,0,0,1,.52.11,1.3,1.3,0,0,1,.43.29,1.35,1.35,0,0,1,.31.43,1.21,1.21,0,0,1,.11.49m-.18,9.78a1.16,1.16,0,0,1-.34.85,1.23,1.23,0,0,1-1.7,0,1.13,1.13,0,0,1-.34-.83V10.79h-.1a1,1,0,0,1-.74-.29,1,1,0,0,1-.3-.72,1,1,0,0,1,1-1h1.31a1.15,1.15,0,0,1,.85.34,1.13,1.13,0,0,1,.34.83Z" transform="translate(0 0)"/><path class="cls-3" d="M52,9.89a1,1,0,0,1-.31.73,1,1,0,0,1-.73.3h-.85v4.44c0,.06,0,.09.08.09a.68.68,0,0,1,.33.09,1,1,0,0,1,.31.21,1,1,0,0,1,.23.33.86.86,0,0,1,.09.39,1,1,0,0,1-.3.73,1,1,0,0,1-.74.3h-.33a2.46,2.46,0,0,1-.76-.12,2.12,2.12,0,0,1-.66-.36,1.85,1.85,0,0,1-.47-.62,2,2,0,0,1-.18-.89V10.92h-.54a1,1,0,0,1-.74-.3,1,1,0,0,1,.73-1.75h.55V7.22A1.2,1.2,0,0,1,48.87,6a1.19,1.19,0,0,1,.86.35,1.12,1.12,0,0,1,.35.82V8.87h.85a1,1,0,0,1,.73.3,1,1,0,0,1,.31.72" transform="translate(0 0)"/><path class="cls-3" d="M60.27,16.31a1.21,1.21,0,0,1-2.05.85,1.14,1.14,0,0,1-.35-.83V12.25A1.57,1.57,0,0,0,57.45,11a1.49,1.49,0,0,0-1.06-.4,1.34,1.34,0,0,0-1.11.46,1.77,1.77,0,0,0-.38,1.15v4.06a1.15,1.15,0,0,1-.35.85,1.14,1.14,0,0,1-.84.34,1.18,1.18,0,0,1-.86-.34,1.14,1.14,0,0,1-.35-.83V6.18a1.21,1.21,0,0,1,2-.85,1.14,1.14,0,0,1,.35.83V9.29c0,.1,0,.15,0,.15a.75.75,0,0,0,.15-.16A1.43,1.43,0,0,1,55.5,9a2.06,2.06,0,0,1,.54-.2,3.57,3.57,0,0,1,.55-.11l.46,0a3.55,3.55,0,0,1,1.28.22A2.82,2.82,0,0,1,60,10.44a3.38,3.38,0,0,1,.25,1.32Z" transform="translate(0 0)"/><path class="cls-3" d="M67.25,8.51a.94.94,0,0,0-.09-.43.86.86,0,0,0-.25-.29,1,1,0,0,0-.33-.17,1.37,1.37,0,0,0-.34,0,1,1,0,0,0-.63.24.72.72,0,0,0-.3.58.77.77,0,0,0,.1.38,1.73,1.73,0,0,0,.24.38c.1.12.19.23.29.33l.23.24a3.48,3.48,0,0,0,.36-.22,3.27,3.27,0,0,0,.35-.3,1.73,1.73,0,0,0,.27-.35.74.74,0,0,0,.1-.35m-2,3.46a3.3,3.3,0,0,0-.92.79A1.8,1.8,0,0,0,64,13.88a1.65,1.65,0,0,0,.42,1.19,1.51,1.51,0,0,0,1.13.43,2.11,2.11,0,0,0,.86-.2,4.54,4.54,0,0,0,1.06-.79Zm6.33,4.45a1.09,1.09,0,0,1-1.11,1.08,1.14,1.14,0,0,1-.44-.08,1,1,0,0,1-.4-.27l-.86-1a8.11,8.11,0,0,1-1,.78,5.85,5.85,0,0,1-.84.45,2.91,2.91,0,0,1-.75.23,4.59,4.59,0,0,1-.73.06A4.53,4.53,0,0,1,64,17.39a3.29,3.29,0,0,1-1.18-.68,3.12,3.12,0,0,1-.8-1.09,3.52,3.52,0,0,1-.3-1.5A3.48,3.48,0,0,1,62,12.9a4.39,4.39,0,0,1,.56-1,4.71,4.71,0,0,1,.74-.74,7.11,7.11,0,0,1,.83-.56c-.18-.2-.34-.4-.48-.59a4.77,4.77,0,0,1-.35-.53A2.52,2.52,0,0,1,63.1,9a2.87,2.87,0,0,1-.05-.55,2.47,2.47,0,0,1,.28-1.2,2.55,2.55,0,0,1,.72-.84,3,3,0,0,1,1-.5,4.17,4.17,0,0,1,1.16-.17,4,4,0,0,1,1.06.15,3.65,3.65,0,0,1,1,.47,2.7,2.7,0,0,1,.75.79,2.15,2.15,0,0,1,.29,1.12,2.67,2.67,0,0,1-.17,1,3,3,0,0,1-.46.79,4.54,4.54,0,0,1-.62.62,4.69,4.69,0,0,1-.69.47l1.48,1.75.53-.62a2.42,2.42,0,0,1,.5-.54,1,1,0,0,1,.61-.19,1,1,0,0,1,.72.29,1,1,0,0,1,.32.73,1.33,1.33,0,0,1-.22.7,6,6,0,0,1-.6.81l-.44.5,1,1.11a1.29,1.29,0,0,1,.24.37.86.86,0,0,1,.09.41" transform="translate(0 0)"/><path class="cls-3" d="M80.28,16.31a1.18,1.18,0,0,1-1.19,1.19,1.16,1.16,0,0,1-.85-.34,1.1,1.1,0,0,1-.35-.83V12.18A1.5,1.5,0,0,0,77.46,11a1.59,1.59,0,0,0-1.07-.36,1.39,1.39,0,0,0-1.11.44,1.63,1.63,0,0,0-.38,1.1v4.13a1.12,1.12,0,0,1-.35.85,1.14,1.14,0,0,1-.84.34,1.16,1.16,0,0,1-.85-.34,1.1,1.1,0,0,1-.35-.83V9.94a1.13,1.13,0,0,1,.36-.85,1.15,1.15,0,0,1,.84-.34.92.92,0,0,1,.65.22,1.08,1.08,0,0,1,.33.6,2.3,2.3,0,0,1,1-.72,3.89,3.89,0,0,1,1.41-.23,3.55,3.55,0,0,1,1.28.22,2.8,2.8,0,0,1,1.7,1.6,3.38,3.38,0,0,1,.24,1.32Z" transform="translate(0 0)"/><path class="cls-3" d="M87.17,12.31a2,2,0,0,0-.54-1.17,1.66,1.66,0,0,0-1.27-.5,1.83,1.83,0,0,0-.71.14,1.87,1.87,0,0,0-.55.36,2,2,0,0,0-.38.54,2,2,0,0,0-.17.63Zm2.41.55a1.08,1.08,0,0,1-.26.81,1.15,1.15,0,0,1-.82.24H83.59a1.82,1.82,0,0,0,.67,1.2,2.61,2.61,0,0,0,2.35.31,4.23,4.23,0,0,0,.71-.32c.21-.13.41-.24.59-.33a1.09,1.09,0,0,1,.51-.14.91.91,0,0,1,.68.3,1,1,0,0,1,.3.71,1.09,1.09,0,0,1-.35.75,3.33,3.33,0,0,1-.91.63,5.91,5.91,0,0,1-1.25.44,6.39,6.39,0,0,1-1.36.16,4.89,4.89,0,0,1-1.83-.34,4.22,4.22,0,0,1-1.39-.94,4.55,4.55,0,0,1-.89-1.43,4.88,4.88,0,0,1-.32-1.77,4.67,4.67,0,0,1,.32-1.7A4.76,4.76,0,0,1,82.31,10a4.17,4.17,0,0,1,1.34-1,4,4,0,0,1,1.73-.37A3.79,3.79,0,0,1,87.11,9a4.46,4.46,0,0,1,1.32,1,4.84,4.84,0,0,1,.85,1.37,4.09,4.09,0,0,1,.3,1.5" transform="translate(0 0)"/><path class="cls-3" d="M96.12,13.11a3.57,3.57,0,0,0-.11-.82,2.59,2.59,0,0,0-.33-.8,1.88,1.88,0,0,0-.58-.61,1.39,1.39,0,0,0-.82-.24,1.49,1.49,0,0,0-.82.23,1.94,1.94,0,0,0-.57.57,2.47,2.47,0,0,0-.34.78,3.48,3.48,0,0,0-.1.83,3.73,3.73,0,0,0,.1.86,2.88,2.88,0,0,0,.33.81,1.84,1.84,0,0,0,.57.61,1.42,1.42,0,0,0,.83.24,1.34,1.34,0,0,0,.81-.24,2,2,0,0,0,.57-.6,2.84,2.84,0,0,0,.34-.8,3.07,3.07,0,0,0,.12-.82m2.38.13a5,5,0,0,1-.27,1.61,4.44,4.44,0,0,1-.77,1.4,4,4,0,0,1-1.22,1,3.46,3.46,0,0,1-1.62.38,3.41,3.41,0,0,1-1.13-.2,2.1,2.1,0,0,1-.95-.66l-.12-.11s0,.05,0,.16v2.91a1.14,1.14,0,0,1-.34.84,1.11,1.11,0,0,1-.83.35,1.13,1.13,0,0,1-.84-.35,1.16,1.16,0,0,1-.34-.83V10a1.13,1.13,0,0,1,.36-.85,1.14,1.14,0,0,1,.84-.34A1.28,1.28,0,0,1,92,9a1.24,1.24,0,0,1,.46.72,1.9,1.9,0,0,1,.94-.83,3.25,3.25,0,0,1,1.29-.27,3.32,3.32,0,0,1,1.66.4,3.57,3.57,0,0,1,1.19,1.06,4.74,4.74,0,0,1,.72,1.48,6,6,0,0,1,.24,1.68" transform="translate(0 0)"/><path class="cls-3" d="M107.09,16.31a1.18,1.18,0,0,1-1.19,1.19,1.15,1.15,0,0,1-.85-.34,1.11,1.11,0,0,1-.36-.83V12.25a1.57,1.57,0,0,0-.42-1.21,1.47,1.47,0,0,0-1.06-.4,1.34,1.34,0,0,0-1.11.46,1.77,1.77,0,0,0-.38,1.15v4.06a1.12,1.12,0,0,1-.35.85,1.13,1.13,0,0,1-.83.34,1.17,1.17,0,0,1-.86-.34,1.1,1.1,0,0,1-.35-.83V6.18A1.18,1.18,0,0,1,100.52,5a1.15,1.15,0,0,1,.85.34,1.1,1.1,0,0,1,.35.83V9.29c0,.1,0,.15,0,.15a.75.75,0,0,0,.15-.16,1.22,1.22,0,0,1,.44-.32,2.14,2.14,0,0,1,.53-.2,3.82,3.82,0,0,1,.55-.11l.47,0a3.63,3.63,0,0,1,1.28.22,2.94,2.94,0,0,1,1,.62,2.89,2.89,0,0,1,.67,1,3.38,3.38,0,0,1,.24,1.32Z" transform="translate(0 0)"/><path class="cls-3" d="M114.47,12.31a2,2,0,0,0-.55-1.17,1.65,1.65,0,0,0-1.26-.5,1.8,1.8,0,0,0-.71.14,1.92,1.92,0,0,0-.56.36,2,2,0,0,0-.37.54,2,2,0,0,0-.17.63Zm2.4.55a1.08,1.08,0,0,1-.25.81,1.16,1.16,0,0,1-.82.24h-4.91a1.77,1.77,0,0,0,.66,1.2,2.4,2.4,0,0,0,1.51.46,2.32,2.32,0,0,0,.84-.15,4.23,4.23,0,0,0,.71-.32c.22-.13.41-.24.6-.33a1,1,0,0,1,.51-.14.93.93,0,0,1,.68.3,1,1,0,0,1,.29.71,1,1,0,0,1-.35.75,3.12,3.12,0,0,1-.9.63,6.11,6.11,0,0,1-1.25.44,6.46,6.46,0,0,1-1.36.16,4.81,4.81,0,0,1-1.83-.34,4,4,0,0,1-1.39-.94,4.37,4.37,0,0,1-.89-1.43,4.88,4.88,0,0,1-.32-1.77,4.67,4.67,0,0,1,.32-1.7A4.73,4.73,0,0,1,109.6,10,4.32,4.32,0,0,1,111,9a4,4,0,0,1,1.73-.37A3.75,3.75,0,0,1,114.4,9a4.21,4.21,0,0,1,1.32,1,4.43,4.43,0,0,1,.85,1.37,4.09,4.09,0,0,1,.3,1.5" transform="translate(0 0)"/><path class="cls-3" d="M128.08,9.92a1.32,1.32,0,0,1-.08.44l-2.13,6.4a.94.94,0,0,1-.42.54,1.21,1.21,0,0,1-.69.2,1.06,1.06,0,0,1-1-.75L122.58,13c0-.16-.08-.29-.11-.39s0-.17-.06-.23,0-.09,0-.09,0,0,0,.09l-.07.23c0,.1-.06.23-.11.39L121,16.75a1,1,0,0,1-.37.54,1.05,1.05,0,0,1-.65.21,1.26,1.26,0,0,1-.7-.2,1,1,0,0,1-.43-.54l-2.12-6.4a1,1,0,0,1-.08-.42,1.15,1.15,0,0,1,.35-.85,1.14,1.14,0,0,1,.84-.34,1.19,1.19,0,0,1,.68.2,1,1,0,0,1,.38.57l1,3.65c0,.17.08.3.1.38s0,.17.06.23,0,.1,0,.1,0,0,0-.1,0-.14,0-.23a2.7,2.7,0,0,1,.09-.38l1.06-3.67a1.1,1.1,0,0,1,.37-.54A1.14,1.14,0,0,1,123,9a1.1,1.1,0,0,1,.4.54l1.06,3.67.09.38a1.58,1.58,0,0,1,.06.23c0,.06,0,.1,0,.1s0,0,0-.1,0-.15.06-.24,0-.22.08-.37l1-3.65a1.05,1.05,0,0,1,.39-.57,1.14,1.14,0,0,1,.66-.2,1.18,1.18,0,0,1,.86.34,1.14,1.14,0,0,1,.35.83" transform="translate(0 0)"/></g></g></g></svg>