<svg xmlns="http://www.w3.org/2000/svg" xmlns:xlink="http://www.w3.org/1999/xlink" viewBox="0 0 79.91 43.55"><defs><style>.cls-1{fill:none;}.cls-2{clip-path:url(#clip-path);}.cls-3{fill:#fff;}</style><clipPath id="clip-path"><rect class="cls-1" width="79.91" height="43.55"/></clipPath></defs><title>Asset 10</title><g id="Layer_2" data-name="Layer 2"><g id="Layer_1-2" data-name="Layer 1"><g class="cls-2"><path class="cls-3" d="M25.64,40.34a4.35,4.35,0,0,1,.61,1.75l0,.3,1.35-1.72-2.16-.61Z"/><path class="cls-3" d="M57.93,40.34a4.07,4.07,0,0,1,.61,1.75l0,.3,1.35-1.72-2.16-.61Z"/></g><polygon class="cls-3" points="2.82 38.81 2.82 40.67 1.04 40.67 1.04 38.81 0 38.81 0 43.46 1.04 43.46 1.04 41.44 2.82 41.44 2.82 43.46 3.86 43.46 3.86 38.81 2.82 38.81"/><polygon class="cls-3" points="4.89 38.81 4.89 43.46 7.39 43.46 7.52 42.65 5.92 42.65 5.92 41.44 7.16 41.44 7.27 40.67 5.92 40.67 5.92 39.62 7.46 39.62 7.46 38.81 4.89 38.81"/><path class="cls-3" d="M10.19,39.77l.46,1.72H9.71Zm-.61-1L8.16,43.46h1l.32-1.18h1.37l.32,1.18h1.05l-1.41-4.64Z"/><polygon class="cls-3" points="13 38.81 13 43.46 15.5 43.46 15.62 42.65 14.04 42.65 14.04 38.81 13 38.81"/><polygon class="cls-3" points="15.52 38.81 15.52 39.62 16.7 39.62 16.7 43.46 17.74 43.46 17.74 39.62 18.9 39.62 19.02 38.81 15.52 38.81"/><polygon class="cls-3" points="22.56 38.81 22.56 40.67 20.78 40.67 20.78 38.81 19.74 38.81 19.74 43.46 20.78 43.46 20.78 41.44 22.56 41.44 22.56 43.46 23.6 43.46 23.6 38.81 22.56 38.81"/><polygon class="cls-3" points="32.3 38.81 32.3 40.67 30.52 40.67 30.52 38.81 29.48 38.81 29.48 43.46 30.52 43.46 30.52 41.44 32.3 41.44 32.3 43.46 33.34 43.46 33.34 38.81 32.3 38.81"/><polygon class="cls-3" points="36.94 38.81 36 40.81 35.13 38.81 34 38.81 35.43 41.62 35.43 43.46 36.47 43.46 36.47 41.63 37.86 38.81 36.94 38.81"/><g class="cls-2"><path class="cls-3" d="M40.49,40.79H42v2.49a5.16,5.16,0,0,1-1.55.27,2.52,2.52,0,0,1-1.85-.63A2.43,2.43,0,0,1,38,41.2a2.38,2.38,0,0,1,2.59-2.47,3.33,3.33,0,0,1,1.19.19l-.14.89a2.53,2.53,0,0,0-1.07-.2,1.54,1.54,0,0,0-.08,3.08,1.87,1.87,0,0,0,.52-.06V41.56h-.63Z"/></g><rect class="cls-3" x="43.1" y="38.81" width="1.04" height="4.65"/><polygon class="cls-3" points="45.2 38.81 45.2 43.46 47.7 43.46 47.83 42.65 46.23 42.65 46.23 41.44 47.47 41.44 47.59 40.67 46.23 40.67 46.23 39.62 47.77 39.62 47.77 38.81 45.2 38.81"/><polygon class="cls-3" points="51.48 38.81 51.48 41.72 49.89 38.81 48.74 38.81 48.74 43.46 49.65 43.46 49.65 40.24 51.35 43.46 52.38 43.46 52.38 38.81 51.48 38.81"/><polygon class="cls-3" points="53.42 38.81 53.42 43.46 55.93 43.46 56.05 42.65 54.46 42.65 54.46 41.44 55.69 41.44 55.81 40.67 54.46 40.67 54.46 39.62 55.99 39.62 55.99 38.81 53.42 38.81"/><polygon class="cls-3" points="64.61 38.81 64.61 40.67 62.83 40.67 62.83 38.81 61.79 38.81 61.79 43.46 62.83 43.46 62.83 41.44 64.61 41.44 64.61 43.46 65.64 43.46 65.64 38.81 64.61 38.81"/><g class="cls-2"><path class="cls-3" d="M69.71,41.12c0-.83-.39-1.55-1.1-1.55s-1.12.7-1.12,1.57.42,1.57,1.11,1.57h0c.7,0,1.1-.67,1.1-1.59m1.05,0a2.18,2.18,0,0,1-2.2,2.46h0a2.15,2.15,0,0,1-2.11-2.38,2.22,2.22,0,0,1,2.19-2.44,2.14,2.14,0,0,1,2.12,2.36"/></g><polygon class="cls-3" points="74.75 38.81 73.86 41.98 73.03 38.81 71.71 38.81 71.43 43.46 72.34 43.46 72.52 40.08 73.39 43.46 74.17 43.46 75.19 39.97 75.33 43.46 76.29 43.46 76.06 38.81 74.75 38.81"/><polygon class="cls-3" points="77.28 38.81 77.28 43.46 79.79 43.46 79.91 42.65 78.32 42.65 78.32 41.44 79.55 41.44 79.67 40.67 78.32 40.67 78.32 39.62 79.85 39.62 79.85 38.81 77.28 38.81"/><g class="cls-2"><path class="cls-3" d="M48.08,12.39c-1.06-.42-2.3.68-2.78,1.79a14.16,14.16,0,0,0-.63,3.34,3.72,3.72,0,0,0,1.83.53A2.73,2.73,0,0,0,49,15.92c.56-1.7.18-3.11-.87-3.53"/><path class="cls-3" d="M48.79,10.29a2.8,2.8,0,0,1,2.85,3.16,8.39,8.39,0,0,1-.2,1.68l6.48-7.22L46.74,5.45l-1.07,6.31a4.16,4.16,0,0,1,3.12-1.47"/><path class="cls-3" d="M42,18.68l.69-4h0l1.63-9.71L22,0c6.66,4.79,11.38,9.79,13.47,16.41l1-5.94h2.47l-.45,2.16a5.1,5.1,0,0,1,2.81-2.27,3.72,3.72,0,0,1,.72,0l-.44,2.73c-1.06-.16-3.19.7-3.49,2.42l-.75,4.43H36.29c0,.15.05.29.07.43a36.3,36.3,0,0,1-.48,12.09L47.06,20h0c-2.53.5-5-1.32-5-1.32"/><path class="cls-3" d="M49.41,17.38v0h0"/></g><path class="cls-3" d="M49.41,17.39Z"/><g class="cls-2"><polygon class="cls-3" points="49.41 17.4 49.41 17.39 49.41 17.39 49.42 17.38 49.41 17.4"/></g></g></g></svg>