<svg xmlns="http://www.w3.org/2000/svg" xmlns:xlink="http://www.w3.org/1999/xlink" viewBox="0 0 102.46 30.61"><defs><style>.cls-1{fill:none;}.cls-2{clip-path:url(#clip-path);}.cls-3{fill:#fff;}</style><clipPath id="clip-path" transform="translate(0)"><rect class="cls-1" width="102.46" height="30.61"/></clipPath></defs><title>Asset 9</title><g id="Layer_2" data-name="Layer 2"><g id="Layer_1-2" data-name="Layer 1"><g class="cls-2"><path class="cls-3" d="M4.63,10.62a3.11,3.11,0,0,0,.17,1A2.16,2.16,0,0,0,7,12.69c.76,0,1.91-.26,1.91-1.38,0-.75-.66-1-3.25-1.71C3.3,8.94.58,8.3.56,5.27c0-3.48,2.95-5,6-5,3.27,0,6.18,1.24,6.3,4.88l-4.38,0A1.12,1.12,0,0,0,8,4,2.44,2.44,0,0,0,6.6,3.6c-.63,0-1.66.17-1.66,1C5,5.67,7.2,6,9.31,6.49S13.55,8,13.56,10.81C13.58,14.72,10,16,6.64,16,5,16,0,15.44,0,10.64Z" transform="translate(0)"/><path class="cls-3" d="M19.08,7.48h1.79c1.18,0,2.46-.08,2.45-1.61,0-1.37-1.05-1.45-2.19-1.44H19.07ZM14.42.59l7.74,0c4.11,0,5.53,3,5.54,5.11,0,3.62-2.41,5.36-5.87,5.37l-2.73,0,0,4.54-4.63,0Z" transform="translate(0)"/></g><polygon class="cls-3" points="28.71 0.53 28.78 15.56 41.45 15.5 41.44 11.65 33.39 11.69 33.38 9.81 40.48 9.78 40.46 6.2 33.37 6.23 33.36 4.36 41.17 4.32 41.15 0.47 28.71 0.53"/><polygon class="cls-3" points="52.18 0.42 52.22 8.46 52.18 8.46 47.76 0.44 43.03 0.46 43.1 15.49 47.47 15.47 47.44 7.26 47.48 7.26 52.13 15.45 56.63 15.43 56.56 0.4 52.18 0.42"/><g class="cls-2"><path class="cls-3" d="M68,6a2.43,2.43,0,0,0-2.43-2.2c-2.17,0-2.86,2.12-2.85,4.14S63.4,12,65.56,12c1.56,0,2.15-1.08,2.43-2.52l4.55,0c0,3-2.43,6.27-6.83,6.29-4.87,0-7.64-3.4-7.66-7.84C58,3.19,61,0,65.63,0,69.78,0,72,2.14,72.46,5.93Z" transform="translate(0)"/></g><polygon class="cls-3" points="73.91 0.32 73.98 15.35 86.65 15.29 86.63 11.44 78.59 11.48 78.58 9.6 85.68 9.57 85.66 5.99 78.57 6.02 78.56 4.15 86.37 4.11 86.35 0.26 73.91 0.32"/><g class="cls-2"><path class="cls-3" d="M92.87,6.8h2.42c.86,0,2-.16,2-1.5,0-1-.53-1.5-2.3-1.49H92.85ZM88.21.25,97,.21c2.61,0,4.91,1.43,4.92,4.27a3.85,3.85,0,0,1-2.23,3.78c1.26.48,2,1.87,2.22,3.74.07.72.08,2.57.52,3.22l-4.63,0a11.5,11.5,0,0,1-.39-2.31c-.11-1.43-.26-2.93-2.1-2.92H92.88l0,5.24-4.64,0Z" transform="translate(0)"/><path class="cls-3" d="M19.24,27.45H20.4c.4,0,.77-.11.77-.61s-.23-.58-.69-.58H19.24Zm0-2.39h1c.43,0,.68-.1.68-.53s-.27-.44-.68-.44h-1Zm-2-2.49h3.51c1.69,0,2,.95,2,1.61A1.31,1.31,0,0,1,22,25.43,1.56,1.56,0,0,1,23.15,27,2,2,0,0,1,20.9,29H17.27Z" transform="translate(0)"/><path class="cls-3" d="M23.67,24.32h1.7v.74h0a1.36,1.36,0,0,1,1.31-.86,2.4,2.4,0,0,1,.52.07v1.58a1.66,1.66,0,0,0-.7-.12c-.71,0-1.07.4-1.07,1.41V29H23.67Z" transform="translate(0)"/></g><path class="cls-3" d="M27.47,24.32h1.77V29H27.47Zm1.78-.5H27.47V22.57h1.78Z" transform="translate(0)"/><g class="cls-2"><path class="cls-3" d="M32.17,24.32h.95v1.1h-.95V27c0,.43.09.62.55.62a2.69,2.69,0,0,0,.4,0V29c-.36,0-.75.05-1.14.05-.75,0-1.59-.11-1.59-1.39V25.42H29.6v-1.1h.79V22.9h1.78Z" transform="translate(0)"/></g><path class="cls-3" d="M33.5,24.32h1.78V29H33.5Zm1.78-.5H33.5V22.57h1.78Z" transform="translate(0)"/><g class="cls-2"><path class="cls-3" d="M38.76,25.68a.45.45,0,0,0-.2-.35.63.63,0,0,0-.4-.14c-.25,0-.54.06-.54.36,0,.13.11.2.21.24.29.12,1,.17,1.56.36a1.33,1.33,0,0,1,1.11,1.3c0,1.3-1.23,1.65-2.37,1.65s-2.3-.44-2.32-1.65h1.7a.57.57,0,0,0,.21.42.71.71,0,0,0,.48.13c.23,0,.6-.09.6-.36s-.15-.35-1-.49c-1.36-.23-1.9-.67-1.9-1.47,0-1.17,1.26-1.48,2.2-1.48s2.21.28,2.26,1.48Z" transform="translate(0)"/><path class="cls-3" d="M41,22.57h1.78v2.25h0a1.72,1.72,0,0,1,1.46-.62,1.5,1.5,0,0,1,1.6,1.58V29H44.07V26.54c0-.54-.06-.92-.58-.92-.32,0-.71.15-.71.9V29H41Z" transform="translate(0)"/></g><polygon class="cls-3" points="49.39 22.57 54.7 22.57 54.7 24.21 51.37 24.21 51.37 25.01 54.4 25.01 54.4 26.54 51.37 26.54 51.37 27.34 54.8 27.34 54.8 28.98 49.39 28.98 49.39 22.57"/><g class="cls-2"><path class="cls-3" d="M55.46,24.32h1.72v.59h0a1.71,1.71,0,0,1,1.52-.71,1.5,1.5,0,0,1,1.59,1.58V29H58.54V26.54c0-.54-.07-.92-.59-.92-.31,0-.71.15-.71.9V29H55.46Z" transform="translate(0)"/><path class="cls-3" d="M63.35,27.56c.65,0,.73-.63.73-1.15s-.25-.91-.78-.91-.75.43-.75.92.16,1.14.8,1.14m2.46.82c0,.93-.24,2.23-2.43,2.23-1.1,0-2.26-.3-2.43-1.56h1.76l.1.16a.68.68,0,0,0,.52.35c.58,0,.7-.69.7-1.07v-.43h0a1.43,1.43,0,0,1-1.25.64c-1.37,0-2-1-2-2.27a2,2,0,0,1,2-2.23,1.24,1.24,0,0,1,1.22.68h0v-.56h1.78Z" transform="translate(0)"/></g><path class="cls-3" d="M66.53,24.32h1.78V29H66.53Zm1.78-.5H66.53V22.57h1.78Z" transform="translate(0)"/><g class="cls-2"><path class="cls-3" d="M69.1,24.32h1.71v.59h0a1.71,1.71,0,0,1,1.52-.71A1.5,1.5,0,0,1,74,25.78V29H72.17V26.54c0-.54-.07-.92-.59-.92-.31,0-.71.15-.71.9V29H69.1Z" transform="translate(0)"/><path class="cls-3" d="M77.89,26.12a.76.76,0,0,0-.78-.78.83.83,0,0,0-.91.78Zm-1.7.93a.93.93,0,0,0,1.65.57H79.5A2.58,2.58,0,1,1,77,24.2c1.85,0,2.65,1,2.65,2.85Z" transform="translate(0)"/><path class="cls-3" d="M83.33,26.12a.77.77,0,0,0-.78-.78.84.84,0,0,0-.92.78Zm-1.71.93a.88.88,0,0,0,.91.91.86.86,0,0,0,.74-.34h1.67a2.58,2.58,0,1,1-2.55-3.42c1.85,0,2.64,1,2.64,2.85Z" transform="translate(0)"/><path class="cls-3" d="M85.55,24.32h1.71v.74h0a1.35,1.35,0,0,1,1.31-.86,2.4,2.4,0,0,1,.52.07v1.58a1.66,1.66,0,0,0-.7-.12c-.71,0-1.08.4-1.08,1.41V29H85.55Z" transform="translate(0)"/></g><path class="cls-3" d="M89.35,24.32h1.78V29H89.35Zm1.78-.5H89.35V22.57h1.78Z" transform="translate(0)"/><g class="cls-2"><path class="cls-3" d="M91.92,24.32h1.72v.59h0a1.73,1.73,0,0,1,1.52-.71,1.5,1.5,0,0,1,1.6,1.58V29H95V26.54c0-.54-.06-.92-.58-.92-.32,0-.71.15-.71.9V29H91.92Z" transform="translate(0)"/><path class="cls-3" d="M99.81,27.56c.65,0,.72-.63.72-1.15s-.24-.91-.77-.91-.75.43-.75.92.16,1.14.8,1.14m2.46.82c0,.93-.25,2.23-2.43,2.23-1.1,0-2.26-.3-2.43-1.56h1.76a1,1,0,0,0,.1.16.65.65,0,0,0,.52.35c.57,0,.7-.69.7-1.07v-.43h0a1.44,1.44,0,0,1-1.25.64c-1.37,0-2-1-2-2.27a2,2,0,0,1,2-2.23,1.25,1.25,0,0,1,1.22.68h0v-.56h1.78Z" transform="translate(0)"/></g></g></g></svg>