<svg xmlns="http://www.w3.org/2000/svg" xmlns:xlink="http://www.w3.org/1999/xlink" viewBox="0 0 128.08 20.54"><defs><style>.cls-1{fill:none;}.cls-2{clip-path:url(#clip-path);}.cls-3{fill:#fff;}</style><clipPath id="clip-path"><rect class="cls-1" width="128.08" height="20.54"/></clipPath></defs><title>Asset 7</title><g id="Layer_2" data-name="Layer 2"><g id="Layer_1-2" data-name="Layer 1"><g class="cls-2"><path class="cls-3" d="M.2,11.79v-2a10.38,10.38,0,0,0,3.11.54c1.22,0,1.86-.32,1.86-1a.78.78,0,0,0-.26-.61A5.65,5.65,0,0,0,3.47,8,9.78,9.78,0,0,1,.81,6.51a2.54,2.54,0,0,1-.81-2A2.64,2.64,0,0,1,1.17,2.22a5.09,5.09,0,0,1,3-.81,18.22,18.22,0,0,1,3,.37v2a7.35,7.35,0,0,0-2.7-.58c-1.16,0-1.75.33-1.75,1a.69.69,0,0,0,.35.59,14.49,14.49,0,0,0,1.61.78A9.37,9.37,0,0,1,7.21,6.94,2.64,2.64,0,0,1,8,8.86,2.87,2.87,0,0,1,6.5,11.44a6,6,0,0,1-3.1.71,14.27,14.27,0,0,1-3.2-.36"/></g><rect class="cls-3" x="9.6" y="1.59" width="2.9" height="10.38"/><polygon class="cls-3" points="15.16 11.96 15.16 1.59 22.59 1.59 22.59 3.46 17.95 3.46 17.95 5.8 22 5.8 22 7.52 17.95 7.52 17.95 9.98 22.72 9.98 22.72 11.96 15.16 11.96"/><polygon class="cls-3" points="24.62 11.96 24.62 1.59 28.36 1.59 30.98 8.22 33.66 1.59 37.23 1.59 37.23 11.96 34.49 11.96 34.49 4.61 31.43 12.05 29.65 12.05 26.66 4.61 26.66 11.96 24.62 11.96"/><polygon class="cls-3" points="39.89 11.96 39.89 1.59 47.32 1.59 47.32 3.46 42.68 3.46 42.68 5.8 46.74 5.8 46.74 7.52 42.68 7.52 42.68 9.98 47.45 9.98 47.45 11.96 39.89 11.96"/><polygon class="cls-3" points="49.34 11.96 49.34 1.59 52.72 1.59 56.27 8.53 56.27 1.59 58.32 1.59 58.32 11.96 55.05 11.96 51.39 4.92 51.39 11.96 49.34 11.96"/><g class="cls-2"><path class="cls-3" d="M60.4,11.79v-2a10.1,10.1,0,0,0,3.08.54c1.24,0,1.86-.32,1.86-1a.82.82,0,0,0-.26-.61A5.46,5.46,0,0,0,63.64,8,8.56,8.56,0,0,1,61,6.51a2.62,2.62,0,0,1-.8-2A2.65,2.65,0,0,1,61.35,2.2a5.09,5.09,0,0,1,3-.81,15.42,15.42,0,0,1,2.73.33l.26,0v2a7,7,0,0,0-2.7-.58c-1.16,0-1.74.32-1.74,1a.67.67,0,0,0,.34.58,14.84,14.84,0,0,0,1.63.79A10.23,10.23,0,0,1,67.4,6.93a2.56,2.56,0,0,1,.74,1.92,2.83,2.83,0,0,1-1.46,2.57,5.86,5.86,0,0,1-3.1.71,12.7,12.7,0,0,1-3.18-.34"/><path class="cls-3" d="M95.09,12c.11-2.85.08-5.81-.08-8.64h2.13l.07,1.23c.59-1.28,3.29-1.82,4.32-.2.29-.71,1.07-1.07,2.37-1,.94.09,1.62.44,1.62,1.45l0,5.4a4.42,4.42,0,0,0,.33,1.77h-2.17l0-6.13c0-1-.48-1.41-1.2-1.39s-1.13.5-1.13,1.36l0,6.16-1.92,0,0-6.16c0-.71-.28-1.32-1.11-1.35s-1.2.48-1.13,1.41l-.1,6.1"/><path class="cls-3" d="M93.76,12a5.85,5.85,0,0,1-.25-.95c0-.08,0-.13,0-.2v-.2c-.08-1.44,0-2.63,0-3.63a15.44,15.44,0,0,0,0-1.76,2.43,2.43,0,0,0-.39-1.36,1.43,1.43,0,0,0-1.25-.52H87.73v.45h2.58a1,1,0,0,1,1.09.67,2.86,2.86,0,0,1,.07,1.48v.13l-.11,0a8.43,8.43,0,0,0-3.19.52A3,3,0,0,0,86.51,8a3.3,3.3,0,0,0,.26,2.71,3.2,3.2,0,0,0,.3.45,1.83,1.83,0,0,0,.39.34,2.43,2.43,0,0,0,.7.3,7.24,7.24,0,0,0,2.54,0,3.36,3.36,0,0,0,.87-.21l.17-.08v.2l0,.17c.69,0,1.34,0,2,0m-.27-1.35h0m-2.1-4.1h.15v.16l0,3.08a1.47,1.47,0,0,1-.24.79.87.87,0,0,0-.09.11s-.07.09-.11.11v0a1.23,1.23,0,0,1-.42.26h-.11a1.68,1.68,0,0,1-.63.12A1.84,1.84,0,0,1,89,11a1.21,1.21,0,0,1-.49-.69,3.61,3.61,0,0,1,.22-2.55,4.21,4.21,0,0,1,.28-.4A2,2,0,0,1,89.36,7a5.45,5.45,0,0,1,.75-.32.48.48,0,0,0,.18,0,5.62,5.62,0,0,1,1.1-.11"/><path class="cls-3" d="M80.46,1h4.65l0-1H79.88A6.43,6.43,0,0,0,76.2,1.08a4.73,4.73,0,0,0-.66.54c-.21.2-.41.44-.61.67v0a5.89,5.89,0,0,0-1.18,3.61,6.66,6.66,0,0,0,0,.78,4.86,4.86,0,0,0,.13.81,5.68,5.68,0,0,0,.61,1.78,5.33,5.33,0,0,0,2.79,2.48,6.24,6.24,0,0,0,1.77.15s4.53,0,6.06,0c0-1.18,0-2.3,0-3.15a14.37,14.37,0,0,0,0-1.68,2.3,2.3,0,0,0-.43-1.31,1.61,1.61,0,0,0-1.3-.5H81v.46l.92,0A1.08,1.08,0,0,1,83,6.31a3,3,0,0,1,.16,1.31v2.9h-3.9a3,3,0,0,1-2-1.31,5.2,5.2,0,0,1-.94-2.67c0-.2,0-.4,0-.59,0-2,.71-3.65,2.09-4.43a3.11,3.11,0,0,1,.9-.37,3.85,3.85,0,0,1,1-.13s0,0,.06,0M74.94,2.33v0Z"/><path class="cls-3" d="M128.08,12a5.59,5.59,0,0,1-.25-.95,1.41,1.41,0,0,1,0-.2.46.46,0,0,1,0-.2c-.07-1.44,0-2.63.07-3.63,0-.7.07-1.27.07-1.76a2.35,2.35,0,0,0-.38-1.36,1.46,1.46,0,0,0-1.25-.52l-4.11,0,0,.48h2.59a1,1,0,0,1,1.08.67,3,3,0,0,1,0,1.48l0,.13-.09,0a8.42,8.42,0,0,0-3.2.52A3,3,0,0,0,120.9,8a3.31,3.31,0,0,0,.2,2.71,3.2,3.2,0,0,0,.3.45,3.06,3.06,0,0,0,.39.34,2.55,2.55,0,0,0,.7.3,7.75,7.75,0,0,0,2.54,0,3.58,3.58,0,0,0,.87-.21l.18-.08v.37m1.71-1.33h0m-2-4.1h.13v.16l-.09,3.08a1.39,1.39,0,0,1-.24.79l-.11.11a.32.32,0,0,1-.12.11v0A1.1,1.1,0,0,1,125,11h-.09a1.94,1.94,0,0,1-.66.12,1.67,1.67,0,0,1-.91-.22,1.09,1.09,0,0,1-.49-.69,3.68,3.68,0,0,1,.26-2.55,4.41,4.41,0,0,1,.29-.4,1.7,1.7,0,0,1,.38-.33,4.66,4.66,0,0,1,.79-.32.58.58,0,0,0,.16,0,5.49,5.49,0,0,1,1.11-.11"/><path class="cls-3" d="M115.25,12h2.2c2.31,0,2.77-1.15,2.65-2.26C120,8.16,118.9,7.54,117.9,7S116,5.85,116.19,5a1.32,1.32,0,0,1,1.11-1,3.32,3.32,0,0,1,.75-.08h2l.09-.54h-3c-2.08,0-2.78,1.24-2.78,2.39a2.1,2.1,0,0,0,.33,1.14c.8,1.64,3.33,1.68,3.16,3.4-.07.74-.5,1.18-2,1.2h-1.72V12"/><path class="cls-3" d="M113.46,7.48h-4.69c0,.61,0,1,0,1.24a7.25,7.25,0,0,0,.16,1.24,1.86,1.86,0,0,0,1.94,1.48h2.45v.49h-3.73a2.92,2.92,0,0,1-1.9-.65,2.75,2.75,0,0,1-1-1.72,10.21,10.21,0,0,1-.09-2.09c.12-2.63,1-4,2.75-4.14.24,0,.57,0,1,0s.71,0,.88,0c1.59.2,2.33,1.56,2.23,4.15m-1.61-.7c0-.45,0-.82,0-1.1a2.46,2.46,0,0,0-.45-1.29,1.23,1.23,0,0,0-1.07-.54c-1,0-1.5,1-1.53,2.93Z"/><path class="cls-3" d="M40.32,20.51V19h.53c.13,0,.2,0,.26,0a1.67,1.67,0,0,1,.2.08,1.34,1.34,0,0,1,.24.24c.09.12.2.26.33.46l.46.71h.57l-.62-.94a2.4,2.4,0,0,0-.37-.45,1.28,1.28,0,0,0-.26-.16,1.08,1.08,0,0,0,.72-.33.85.85,0,0,0,.24-.61.79.79,0,0,0-.16-.52.7.7,0,0,0-.37-.33,1.79,1.79,0,0,0-.7-.09H39.86V20.5h.46Zm0-3h1.09a.79.79,0,0,1,.54.17.56.56,0,0,1,.09.69.52.52,0,0,1-.26.2,1.34,1.34,0,0,1-.49.07h-1V17.47Zm8,3V20.1H46.28V19h1.87v-.4H46.28v-1h2V17.1H45.82v3.41Zm3.53,0V17.84l1.82,2.67h.46V17.1h-.45v2.67L51.94,17.1h-.49v3.41Zm8.06,0V20.1H57.87V19h1.9v-.4h-1.9v-1h2V17.1H57.41v3.41Zm4.19,0,.71-2.62q0-.16.12-.39a2.59,2.59,0,0,0,.11.39l.72,2.62h.44l.94-3.41h-.46l-.54,2.19c-.07.28-.13.52-.17.74a6.33,6.33,0,0,0-.26-1.2l-.48-1.73h-.55l-.65,2.3c0,.07-.07.26-.16.63a5.88,5.88,0,0,0-.16-.7l-.53-2.25h-.45l.91,3.42h.46Zm5.86,0,.37-1h1.44l.39,1h.53L71.31,17.1h-.48l-1.3,3.41Zm.87-2.39a4,4,0,0,0,.2-.65,5.84,5.84,0,0,0,.24.69l.34,1H70.5Zm6,2.39a2,2,0,0,0,.54-.07,1,1,0,0,0,.39-.16A1.34,1.34,0,0,0,78,20a1,1,0,0,0,.12-.45A.85.85,0,0,0,78,19a.72.72,0,0,0-.49-.3.93.93,0,0,0,.37-.33A.82.82,0,0,0,78,18a.87.87,0,0,0-.13-.44.76.76,0,0,0-.38-.33,1.53,1.53,0,0,0-.62-.11H75.54v3.41h1.3Zm-.86-3h.67a1.66,1.66,0,0,1,.53,0,.49.49,0,0,1,.25.17.66.66,0,0,1,.08.3.62.62,0,0,1-.08.29.54.54,0,0,1-.26.17,2.11,2.11,0,0,1-.44,0H76ZM76,19h.79a1.76,1.76,0,0,1,.5,0,.54.54,0,0,1,.28.2.52.52,0,0,1,.09.34.61.61,0,0,1-.07.28.46.46,0,0,1-.17.17.89.89,0,0,1-.26.12H76V19Zm7.38,1.56V20.1h-1.7v-3H81.2v3.41Zm5.57,0V20.1H86.81V19h1.9v-.4h-1.9v-1h2V17.1H86.38v3.41Zm9.47,0V20.1H96.31V19h1.88v-.4H96.31v-1h2V17.1H95.86v3.41Zm3.53,0V17.84l1.81,2.67h.46V17.1h-.44v2.67L102,17.1h-.48v3.41Zm8.06,0V20.1H107.9V19h1.9v-.4h-1.9v-1h2V17.1h-2.48v3.41Zm3.57,0V19h.53c.13,0,.2,0,.26,0l.2.08a1.34,1.34,0,0,1,.24.24c.08.12.2.26.33.46l.46.71h.57l-.62-.94a2.4,2.4,0,0,0-.37-.45,1.28,1.28,0,0,0-.26-.16,1.08,1.08,0,0,0,.72-.33.85.85,0,0,0,.24-.61.79.79,0,0,0-.16-.52.7.7,0,0,0-.37-.33,1.79,1.79,0,0,0-.7-.09H113.1V20.5h.46Zm0-3h1.09a.79.79,0,0,1,.54.17.42.42,0,0,1,.17.4.55.55,0,0,1-.08.29.7.7,0,0,1-.26.2,1.34,1.34,0,0,1-.49.07h-1V17.47Zm8.09,1.69v.65a1.81,1.81,0,0,1-.43.25,1.52,1.52,0,0,1-.57.11A1.18,1.18,0,0,1,120,20a1,1,0,0,1-.46-.45,1.6,1.6,0,0,1-.16-.77,2.07,2.07,0,0,1,.13-.7,1.87,1.87,0,0,1,.2-.32.9.9,0,0,1,.37-.25,1.31,1.31,0,0,1,.55-.11,1.2,1.2,0,0,1,.45.09.81.81,0,0,1,.33.24,1,1,0,0,1,.2.41l.42-.11a1.9,1.9,0,0,0-.26-.57,1.16,1.16,0,0,0-.46-.33,1.7,1.7,0,0,0-.67-.13,2.14,2.14,0,0,0-.91.21,1.24,1.24,0,0,0-.59.66,1.77,1.77,0,0,0-.21.91,1.91,1.91,0,0,0,.21.91,1.35,1.35,0,0,0,.62.63,2.29,2.29,0,0,0,.91.21,2.06,2.06,0,0,0,.74-.13,2.87,2.87,0,0,0,.67-.41V18.73h-1.44v.4h1Zm5,1.35V19.07l1.37-2h-.54l-.66,1c-.15.24-.25.44-.37.61-.11-.2-.21-.39-.34-.58l-.67-1h-.54l1.3,2v1.44Z"/></g></g></g></svg>